<?xml version="1.0" encoding="utf-8" standalone="no"?>
<!DOCTYPE svg PUBLIC "-//W3C//DTD SVG 1.1//EN"
  "http://www.w3.org/Graphics/SVG/1.1/DTD/svg11.dtd">
<svg xmlns:xlink="http://www.w3.org/1999/xlink" width="612.2294pt" height="261.8486pt" viewBox="0 0 612.2294 261.8486" xmlns="http://www.w3.org/2000/svg" version="1.1">
 <metadata>
  <rdf:RDF xmlns:dc="http://purl.org/dc/elements/1.1/" xmlns:cc="http://creativecommons.org/ns#" xmlns:rdf="http://www.w3.org/1999/02/22-rdf-syntax-ns#">
   <cc:Work>
    <dc:type rdf:resource="http://purl.org/dc/dcmitype/StillImage"/>
    <dc:date>2023-06-01T17:31:00.704390</dc:date>
    <dc:format>image/svg+xml</dc:format>
    <dc:creator>
     <cc:Agent>
      <dc:title>Matplotlib v3.7.0, https://matplotlib.org/</dc:title>
     </cc:Agent>
    </dc:creator>
   </cc:Work>
  </rdf:RDF>
 </metadata>
 <defs>
  <style type="text/css">*{stroke-linejoin: round; stroke-linecap: butt}</style>
 </defs>
 <g id="figure_1">
  <g id="patch_1">
   <path d="M 0 261.8486 
L 612.2294 261.8486 
L 612.2294 0 
L 0 0 
L 0 261.8486 
z
" style="fill: none"/>
  </g>
  <g id="axes_1">
   <g id="patch_2">
    <path d="M 64.565 225.6336 
L 394.343 225.6336 
L 394.343 7.2 
L 64.565 7.2 
L 64.565 225.6336 
z
" style="fill: none"/>
   </g>
   <g id="matplotlib.axis_1">
    <g id="xtick_1">
     <g id="line2d_1">
      <defs>
       <path id="ma6364cefb7" d="M 0 0 
L 0 -3.5 
" style="stroke: #000000; stroke-width: 2.83465"/>
      </defs>
      <g>
       <use xlink:href="#ma6364cefb7" x="74.385975" y="225.6336" style="stroke: #000000; stroke-width: 2.83465"/>
      </g>
     </g>
     <g id="text_1">
      <!-- 0 -->
      <g transform="translate(67.298475 248.495764) scale(0.2835 -0.2835)">
       <defs>
        <path id="STIXGeneral-Regular-30" d="M 3046 2112 
Q 3046 1683 2963 1302 
Q 2880 922 2717 602 
Q 2554 282 2266 96 
Q 1978 -90 1600 -90 
Q 1210 -90 915 108 
Q 621 307 461 640 
Q 301 973 227 1350 
Q 154 1728 154 2150 
Q 154 2746 301 3222 
Q 448 3699 790 4012 
Q 1133 4326 1626 4326 
Q 2253 4326 2649 3712 
Q 3046 3098 3046 2112 
z
M 2432 2080 
Q 2432 3091 2217 3625 
Q 2003 4160 1587 4160 
Q 1190 4160 979 3622 
Q 768 3085 768 2106 
Q 768 1120 979 598 
Q 1190 77 1600 77 
Q 2003 77 2217 598 
Q 2432 1120 2432 2080 
z
" transform="scale(0.015625)"/>
       </defs>
       <use xlink:href="#STIXGeneral-Regular-30"/>
      </g>
     </g>
    </g>
    <g id="xtick_2">
     <g id="line2d_2">
      <g>
       <use xlink:href="#ma6364cefb7" x="270.533236" y="225.6336" style="stroke: #000000; stroke-width: 2.83465"/>
      </g>
     </g>
     <g id="text_2">
      <!-- 20 -->
      <g transform="translate(256.358236 248.495764) scale(0.2835 -0.2835)">
       <defs>
        <path id="STIXGeneral-Regular-32" d="M 3034 877 
L 2688 0 
L 186 0 
L 186 77 
L 1325 1286 
Q 1773 1754 1965 2144 
Q 2157 2534 2157 2950 
Q 2157 3379 1920 3616 
Q 1683 3853 1267 3853 
Q 922 3853 720 3673 
Q 518 3494 326 3021 
L 192 3053 
Q 301 3648 630 3987 
Q 960 4326 1523 4326 
Q 2054 4326 2380 4006 
Q 2707 3686 2707 3200 
Q 2707 2477 1888 1613 
L 832 486 
L 2330 486 
Q 2541 486 2665 569 
Q 2790 653 2944 915 
L 3034 877 
z
" transform="scale(0.015625)"/>
       </defs>
       <use xlink:href="#STIXGeneral-Regular-32"/>
       <use xlink:href="#STIXGeneral-Regular-30" x="49.999985"/>
      </g>
     </g>
    </g>
   </g>
   <g id="matplotlib.axis_2">
    <g id="ytick_1">
     <g id="line2d_3">
      <defs>
       <path id="m69a7071c3c" d="M 0 0 
L 3.5 0 
" style="stroke: #000000; stroke-width: 2.83465"/>
      </defs>
      <g>
       <use xlink:href="#m69a7071c3c" x="64.565" y="164.9189" style="stroke: #000000; stroke-width: 2.83465"/>
      </g>
     </g>
     <g id="text_3">
      <!-- $\mathdefault{10^{-8}}$ -->
      <g transform="translate(7.2 174.599982) scale(0.2835 -0.2835)">
       <defs>
        <path id="STIXGeneral-Regular-31" d="M 2522 0 
L 755 0 
L 755 96 
Q 1107 115 1235 227 
Q 1363 339 1363 608 
L 1363 3482 
Q 1363 3795 1171 3795 
Q 1082 3795 883 3718 
L 710 3654 
L 710 3744 
L 1856 4326 
L 1914 4307 
L 1914 486 
Q 1914 275 2042 185 
Q 2170 96 2522 96 
L 2522 0 
z
" transform="scale(0.015625)"/>
        <path id="STIXGeneral-Regular-2212" d="M 3974 1408 
L 410 1408 
L 410 1830 
L 3974 1830 
L 3974 1408 
z
" transform="scale(0.015625)"/>
        <path id="STIXGeneral-Regular-38" d="M 2848 992 
Q 2848 499 2505 204 
Q 2163 -90 1587 -90 
Q 1050 -90 704 204 
Q 358 499 358 954 
Q 358 1293 524 1533 
Q 691 1773 1190 2125 
Q 710 2522 553 2765 
Q 397 3008 397 3328 
Q 397 3782 745 4054 
Q 1094 4326 1638 4326 
Q 2106 4326 2410 4060 
Q 2714 3795 2714 3411 
Q 2714 3059 2531 2848 
Q 2349 2637 1856 2374 
Q 2432 1990 2640 1689 
Q 2848 1389 2848 992 
z
M 2272 3411 
Q 2272 3744 2086 3945 
Q 1901 4147 1574 4147 
Q 1248 4147 1059 3977 
Q 870 3808 870 3513 
Q 870 3219 1059 2979 
Q 1248 2739 1670 2490 
Q 1997 2682 2134 2896 
Q 2272 3110 2272 3411 
z
M 1734 1741 
L 1357 1997 
Q 1075 1766 960 1545 
Q 845 1325 845 1011 
Q 845 576 1065 333 
Q 1286 90 1658 90 
Q 1971 90 2166 285 
Q 2362 480 2362 794 
Q 2362 1082 2214 1299 
Q 2067 1517 1734 1741 
z
" transform="scale(0.015625)"/>
       </defs>
       <use xlink:href="#STIXGeneral-Regular-31" transform="translate(0 0.684375)"/>
       <use xlink:href="#STIXGeneral-Regular-30" transform="translate(49.999985 0.684375)"/>
       <use xlink:href="#STIXGeneral-Regular-2212" transform="translate(101.574969 36.684375) scale(0.7)"/>
       <use xlink:href="#STIXGeneral-Regular-38" transform="translate(149.524959 36.684375) scale(0.7)"/>
      </g>
     </g>
    </g>
    <g id="ytick_2">
     <g id="line2d_4">
      <g>
       <use xlink:href="#m69a7071c3c" x="64.565" y="76.393939" style="stroke: #000000; stroke-width: 2.83465"/>
      </g>
     </g>
     <g id="text_4">
      <!-- $\mathdefault{10^{-5}}$ -->
      <g transform="translate(7.2 86.075021) scale(0.2835 -0.2835)">
       <defs>
        <path id="STIXGeneral-Regular-35" d="M 2803 4358 
L 2573 3814 
Q 2534 3731 2400 3731 
L 1158 3731 
L 902 3187 
Q 1606 3053 1920 2896 
Q 2234 2739 2502 2368 
Q 2726 2061 2726 1555 
Q 2726 1094 2576 780 
Q 2426 467 2099 224 
Q 1664 -90 1011 -90 
Q 646 -90 422 19 
Q 198 128 198 307 
Q 198 550 486 550 
Q 717 550 960 352 
Q 1210 147 1414 147 
Q 1747 147 2012 480 
Q 2278 813 2278 1229 
Q 2278 1843 1850 2189 
Q 1293 2637 486 2637 
Q 410 2637 410 2688 
L 416 2720 
L 1114 4237 
L 2438 4237 
Q 2547 4237 2608 4269 
Q 2669 4301 2746 4403 
L 2803 4358 
z
" transform="scale(0.015625)"/>
       </defs>
       <use xlink:href="#STIXGeneral-Regular-31" transform="translate(0 0.842187)"/>
       <use xlink:href="#STIXGeneral-Regular-30" transform="translate(49.999985 0.842187)"/>
       <use xlink:href="#STIXGeneral-Regular-2212" transform="translate(101.574969 36.842187) scale(0.7)"/>
       <use xlink:href="#STIXGeneral-Regular-35" transform="translate(149.524959 36.842187) scale(0.7)"/>
      </g>
     </g>
    </g>
   </g>
   <g id="line2d_5">
    <path d="M 79.554909 36.156029 
L 89.892777 31.107161 
L 100.230646 33.119053 
L 110.568514 34.45788 
L 120.906382 37.887482 
L 131.244251 40.932036 
L 141.582119 44.150398 
L 151.919987 47.717573 
L 162.257856 51.451152 
L 172.595724 55.75651 
L 182.933592 59.435498 
L 193.271461 63.464929 
L 203.609329 66.957348 
L 213.947197 70.933078 
L 224.285066 75.121867 
L 234.622934 78.232864 
L 244.960803 81.956875 
L 255.298671 85.92862 
L 265.636539 89.267127 
L 275.974408 93.667597 
L 286.312276 97.265569 
L 296.650144 100.973817 
L 306.988013 104.412582 
L 317.325881 108.472401 
L 327.663749 111.716699 
L 338.001618 116.240894 
L 348.339486 122.632587 
L 358.677354 126.797088 
L 369.015223 129.297335 
L 379.353091 133.762889 
" clip-path="url(#p3105859059)" style="fill: none; stroke: #471365; stroke-width: 2.83465; stroke-linecap: square"/>
   </g>
   <g id="line2d_6">
    <path d="M 79.554909 23.625384 
L 89.892777 22.443705 
L 100.230646 24.614591 
L 110.568514 27.618082 
L 120.906382 30.63037 
L 131.244251 35.259528 
L 141.582119 40.387939 
L 151.919987 45.987079 
L 162.257856 51.597837 
L 172.595724 58.060907 
L 182.933592 64.37573 
L 193.271461 69.970625 
L 203.609329 75.98828 
L 213.947197 81.340478 
L 224.285066 86.43004 
L 234.622934 90.998618 
L 244.960803 95.79809 
L 255.298671 99.752301 
L 265.636539 103.830166 
L 275.974408 107.577862 
L 286.312276 114.137831 
L 296.650144 117.630716 
L 306.988013 119.973227 
L 317.325881 123.913814 
L 327.663749 128.216278 
L 338.001618 133.643291 
L 348.339486 140.044134 
L 358.677354 144.137263 
L 369.015223 156.926338 
L 379.353091 177.592068 
" clip-path="url(#p3105859059)" style="fill: none; stroke: #3b518b; stroke-width: 2.83465; stroke-linecap: square"/>
   </g>
   <g id="line2d_7">
    <path d="M 79.554909 21.02612 
L 89.892777 19.694054 
L 100.230646 21.60975 
L 110.568514 24.593323 
L 120.906382 28.936733 
L 131.244251 33.707105 
L 141.582119 39.486136 
L 151.919987 45.647268 
L 162.257856 52.737131 
L 172.595724 60.632939 
L 182.933592 69.196846 
L 193.271461 77.149012 
L 203.609329 86.175744 
L 213.947197 93.22205 
L 224.285066 98.455331 
L 234.622934 103.93513 
L 244.960803 108.540378 
L 255.298671 114.744855 
L 265.636539 116.098545 
L 275.974408 120.382242 
L 286.312276 123.227266 
L 296.650144 123.56778 
L 306.988013 127.529492 
L 317.325881 134.53872 
L 327.663749 140.239403 
L 338.001618 156.083148 
L 348.339486 172.378067 
L 358.677354 215.7048 
L 358.694033 262.8486 
" clip-path="url(#p3105859059)" style="fill: none; stroke: #21908d; stroke-width: 2.83465; stroke-linecap: square"/>
   </g>
   <g id="line2d_8">
    <path d="M 79.554909 20.017508 
L 89.892777 17.720119 
L 100.230646 20.574995 
L 110.568514 23.190095 
L 120.906382 27.827157 
L 131.244251 32.74127 
L 141.582119 39.005028 
L 151.919987 45.881572 
L 162.257856 54.410147 
L 172.595724 63.086018 
L 182.933592 73.106585 
L 193.271461 83.661485 
L 203.609329 94.862117 
L 213.947197 107.123707 
L 224.285066 111.707574 
L 234.622934 113.794388 
L 244.960803 117.862369 
L 255.298671 119.825402 
L 265.636539 125.050464 
L 275.974408 129.148578 
L 286.312276 131.337059 
L 296.650144 144.541711 
L 306.988013 158.817309 
L 317.325881 190.368592 
L 327.663749 215.302138 
L 327.68057 262.8486 
" clip-path="url(#p3105859059)" style="fill: none; stroke: #5cc863; stroke-width: 2.83465; stroke-linecap: square"/>
   </g>
   <g id="line2d_9">
    <path d="M 79.554909 18.456434 
L 89.892777 17.1288 
L 100.230646 18.995918 
L 110.568514 22.402918 
L 120.906382 26.814471 
L 131.244251 32.645539 
L 141.582119 38.995425 
L 151.919987 46.563161 
L 162.257856 55.459433 
L 172.595724 65.559831 
L 182.933592 76.695399 
L 193.271461 87.911141 
L 203.609329 100.423618 
L 213.947197 113.254756 
L 224.285066 123.523147 
L 234.622934 124.443639 
L 244.960803 126.725366 
L 255.298671 130.281673 
L 265.636539 134.17801 
L 275.974408 150.260769 
L 286.312276 171.55235 
L 286.344526 262.8486 
" clip-path="url(#p3105859059)" style="fill: none; stroke: #fde725; stroke-width: 2.83465; stroke-linecap: square"/>
   </g>
   <g id="patch_3">
    <path d="M 64.565 225.6336 
L 64.565 7.2 
" style="fill: none; stroke: #000000; stroke-width: 0.8; stroke-linejoin: miter; stroke-linecap: square"/>
   </g>
   <g id="patch_4">
    <path d="M 394.343 225.6336 
L 394.343 7.2 
" style="fill: none; stroke: #000000; stroke-width: 0.8; stroke-linejoin: miter; stroke-linecap: square"/>
   </g>
   <g id="patch_5">
    <path d="M 64.565 225.6336 
L 394.343 225.6336 
" style="fill: none; stroke: #000000; stroke-width: 0.8; stroke-linejoin: miter; stroke-linecap: square"/>
   </g>
   <g id="patch_6">
    <path d="M 64.565 7.2 
L 394.343 7.2 
" style="fill: none; stroke: #000000; stroke-width: 0.8; stroke-linejoin: miter; stroke-linecap: square"/>
   </g>
   <g id="legend_1">
    <g id="patch_7">
     <path d="M 430.6769 230.74418 
L 599.3594 230.74418 
Q 605.0294 230.74418 605.0294 225.07418 
L 605.0294 27.045 
Q 605.0294 21.375 599.3594 21.375 
L 430.6769 21.375 
Q 425.0069 21.375 425.0069 27.045 
L 425.0069 225.07418 
Q 425.0069 230.74418 430.6769 230.74418 
z
" style="fill: #ffffff; opacity: 0.8; stroke: #cccccc; stroke-linejoin: miter"/>
    </g>
    <g id="line2d_10">
     <path d="M 436.3469 42.6375 
L 464.6969 42.6375 
L 493.0469 42.6375 
" style="fill: none; stroke: #471365; stroke-width: 2.83465; stroke-linecap: square"/>
    </g>
    <g id="text_5">
     <!-- 258.0 -->
     <g transform="translate(515.7269 52.56) scale(0.2835 -0.2835)">
      <defs>
       <path id="STIXGeneral-Regular-2e" d="M 1158 275 
Q 1158 134 1052 32 
Q 947 -70 800 -70 
Q 653 -70 550 32 
Q 448 134 448 281 
Q 448 429 553 534 
Q 659 640 806 640 
Q 947 640 1052 531 
Q 1158 422 1158 275 
z
" transform="scale(0.015625)"/>
      </defs>
      <use xlink:href="#STIXGeneral-Regular-32"/>
      <use xlink:href="#STIXGeneral-Regular-35" x="49.999985"/>
      <use xlink:href="#STIXGeneral-Regular-38" x="99.999969"/>
      <use xlink:href="#STIXGeneral-Regular-2e" x="149.999954"/>
      <use xlink:href="#STIXGeneral-Regular-30" x="174.999939"/>
     </g>
    </g>
    <g id="line2d_11">
     <path d="M 436.3469 82.810336 
L 464.6969 82.810336 
L 493.0469 82.810336 
" style="fill: none; stroke: #3b518b; stroke-width: 2.83465; stroke-linecap: square"/>
    </g>
    <g id="text_6">
     <!-- 1303.0 -->
     <g transform="translate(515.7269 92.732836) scale(0.2835 -0.2835)">
      <defs>
       <path id="STIXGeneral-Regular-33" d="M 390 3264 
L 288 3290 
Q 435 3770 748 4048 
Q 1062 4326 1542 4326 
Q 1990 4326 2265 4083 
Q 2541 3840 2541 3450 
Q 2541 2925 1946 2566 
Q 2298 2413 2477 2227 
Q 2758 1914 2758 1402 
Q 2758 890 2464 506 
Q 2246 211 1840 60 
Q 1434 -90 979 -90 
Q 262 -90 262 275 
Q 262 378 339 442 
Q 416 506 525 506 
Q 685 506 915 339 
Q 1197 141 1466 141 
Q 1818 141 2058 425 
Q 2298 710 2298 1120 
Q 2298 1856 1632 2048 
Q 1434 2112 979 2112 
L 979 2202 
Q 1338 2323 1517 2432 
Q 2035 2726 2035 3290 
Q 2035 3610 1852 3776 
Q 1670 3942 1344 3942 
Q 768 3942 390 3264 
z
" transform="scale(0.015625)"/>
      </defs>
      <use xlink:href="#STIXGeneral-Regular-31"/>
      <use xlink:href="#STIXGeneral-Regular-33" x="49.999985"/>
      <use xlink:href="#STIXGeneral-Regular-30" x="99.999969"/>
      <use xlink:href="#STIXGeneral-Regular-33" x="149.999954"/>
      <use xlink:href="#STIXGeneral-Regular-2e" x="199.999939"/>
      <use xlink:href="#STIXGeneral-Regular-30" x="224.999924"/>
     </g>
    </g>
    <g id="line2d_12">
     <path d="M 436.3469 122.983172 
L 464.6969 122.983172 
L 493.0469 122.983172 
" style="fill: none; stroke: #21908d; stroke-width: 2.83465; stroke-linecap: square"/>
    </g>
    <g id="text_7">
     <!-- 2610.0 -->
     <g transform="translate(515.7269 132.905672) scale(0.2835 -0.2835)">
      <defs>
       <path id="STIXGeneral-Regular-36" d="M 2854 4378 
L 2867 4275 
Q 2112 4154 1606 3664 
Q 1101 3174 973 2451 
Q 1344 2739 1786 2739 
Q 2349 2739 2672 2380 
Q 2995 2022 2995 1402 
Q 2995 774 2669 378 
Q 2291 -90 1651 -90 
Q 870 -90 518 557 
Q 218 1107 218 1786 
Q 218 2835 915 3552 
Q 1312 3962 1731 4131 
Q 2150 4301 2854 4378 
z
M 2419 1203 
Q 2419 2445 1555 2445 
Q 1235 2445 1024 2275 
Q 813 2106 813 1702 
Q 813 954 1046 522 
Q 1280 90 1722 90 
Q 2061 90 2240 394 
Q 2419 698 2419 1203 
z
" transform="scale(0.015625)"/>
      </defs>
      <use xlink:href="#STIXGeneral-Regular-32"/>
      <use xlink:href="#STIXGeneral-Regular-36" x="49.999985"/>
      <use xlink:href="#STIXGeneral-Regular-31" x="99.999969"/>
      <use xlink:href="#STIXGeneral-Regular-30" x="149.999954"/>
      <use xlink:href="#STIXGeneral-Regular-2e" x="199.999939"/>
      <use xlink:href="#STIXGeneral-Regular-30" x="224.999924"/>
     </g>
    </g>
    <g id="line2d_13">
     <path d="M 436.3469 163.156008 
L 464.6969 163.156008 
L 493.0469 163.156008 
" style="fill: none; stroke: #5cc863; stroke-width: 2.83465; stroke-linecap: square"/>
    </g>
    <g id="text_8">
     <!-- 3919.0 -->
     <g transform="translate(515.7269 173.078508) scale(0.2835 -0.2835)">
      <defs>
       <path id="STIXGeneral-Regular-39" d="M 378 -141 
L 358 -13 
Q 1094 115 1603 608 
Q 2112 1101 2304 1882 
Q 1933 1517 1344 1517 
Q 826 1517 509 1875 
Q 192 2234 192 2816 
Q 192 3462 573 3894 
Q 954 4326 1523 4326 
Q 2131 4326 2528 3840 
Q 2938 3328 2938 2522 
Q 2938 1958 2742 1462 
Q 2547 966 2170 621 
Q 1773 262 1395 105 
Q 1018 -51 378 -141 
z
M 2317 2272 
L 2317 2522 
Q 2317 4147 1472 4147 
Q 1171 4147 1005 3930 
Q 909 3802 845 3546 
Q 781 3290 781 3034 
Q 781 2464 995 2128 
Q 1210 1792 1568 1792 
Q 1824 1792 2070 1917 
Q 2317 2042 2317 2272 
z
" transform="scale(0.015625)"/>
      </defs>
      <use xlink:href="#STIXGeneral-Regular-33"/>
      <use xlink:href="#STIXGeneral-Regular-39" x="49.999985"/>
      <use xlink:href="#STIXGeneral-Regular-31" x="99.999969"/>
      <use xlink:href="#STIXGeneral-Regular-39" x="149.999954"/>
      <use xlink:href="#STIXGeneral-Regular-2e" x="199.999939"/>
      <use xlink:href="#STIXGeneral-Regular-30" x="224.999924"/>
     </g>
    </g>
    <g id="line2d_14">
     <path d="M 436.3469 203.328844 
L 464.6969 203.328844 
L 493.0469 203.328844 
" style="fill: none; stroke: #fde725; stroke-width: 2.83465; stroke-linecap: square"/>
    </g>
    <g id="text_9">
     <!-- 5230.0 -->
     <g transform="translate(515.7269 213.251344) scale(0.2835 -0.2835)">
      <use xlink:href="#STIXGeneral-Regular-35"/>
      <use xlink:href="#STIXGeneral-Regular-32" x="49.999985"/>
      <use xlink:href="#STIXGeneral-Regular-33" x="99.999969"/>
      <use xlink:href="#STIXGeneral-Regular-30" x="149.999954"/>
      <use xlink:href="#STIXGeneral-Regular-2e" x="199.999939"/>
      <use xlink:href="#STIXGeneral-Regular-30" x="224.999924"/>
     </g>
    </g>
   </g>
  </g>
 </g>
 <defs>
  <clipPath id="p3105859059">
   <rect x="64.565" y="7.2" width="329.778" height="218.4336"/>
  </clipPath>
 </defs>
</svg>
